<svg width="100" height="100" viewBox="0 0 100 100" fill="none" xmlns="http://www.w3.org/2000/svg">
<rect x="56.4578" y="51.5102" width="4.6239" height="31.4425" fill="#265A8E"/>
<rect x="30.7074" y="50.4701" width="4.6239" height="23.1195" transform="rotate(-45 30.7074 50.4701)" fill="#265A8E"/>
<path d="M65.2432 40.4129L68.4799 43.6496L60.1316 54.242L56.4578 51.4342L65.2432 40.4129Z" fill="#265A8E"/>
<rect x="45.8228" y="36.7137" width="4.6239" height="46.239" fill="#265A8E"/>
<circle cx="48.1348" cy="31.6275" r="5.43585" fill="white" stroke="#265A8E" stroke-width="3"/>
<circle cx="32.8758" cy="23.3044" r="5.43585" fill="white" stroke="#265A8E" stroke-width="3"/>
<circle cx="66.168" cy="16.3686" r="5.43585" fill="white" stroke="#265A8E" stroke-width="3"/>
<rect x="30.564" y="27.9283" width="4.6239" height="22.6571" fill="#265A8E"/>
<rect x="63.856" y="20.9925" width="4.6239" height="22.6571" fill="#265A8E"/>
<path d="M77.1057 28.863C77.5412 28.5234 78.1709 28.6004 78.498 29.0453C82.2136 34.0984 84.5225 40.0541 85.1792 46.3038C85.8707 52.8853 84.7021 59.5288 81.8061 65.4792C78.9102 71.4297 74.4031 76.4485 68.797 79.9651C63.191 83.4818 56.7109 85.3553 50.0931 85.3727C43.4754 85.3901 36.9855 83.5508 31.361 80.0637C25.7366 76.5766 21.2031 71.5817 18.2758 65.6465C15.3486 59.7114 14.145 53.0741 14.8019 46.4891C15.4256 40.236 17.7031 34.2682 21.392 29.1957C21.7168 28.749 22.3461 28.6687 22.7834 29.006L25.343 30.9804C25.7803 31.3178 25.8599 31.9448 25.5372 32.393C22.445 36.6892 20.5352 41.7295 20.0086 47.0084C19.449 52.6194 20.4745 58.2748 22.9687 63.332C25.4629 68.3891 29.3258 72.6452 34.1183 75.6164C38.9107 78.5877 44.4406 80.1549 50.0794 80.1401C55.7181 80.1252 61.2397 78.5289 66.0164 75.5324C70.7932 72.536 74.6336 68.2597 77.1011 63.1894C79.5687 58.1192 80.5644 52.4585 79.9752 46.8505C79.4209 41.5745 77.4845 36.5443 74.3697 32.2645C74.0447 31.8179 74.121 31.1905 74.5565 30.8509L77.1057 28.863Z" fill="#265A8E"/>
</svg>
